<svg xmlns="http://www.w3.org/2000/svg" viewBox="0 0 500 500"><defs><style>.cls-1{isolation:isolate;}.cls-2{fill:#fcebeb;}.cls-3{fill:#52a7ff;}.cls-4{fill:#38302f;}.cls-5{fill:#efac95;}.cls-6{fill:#56717a;}.cls-7{fill:#7c7c7c;}.cls-8{fill:#dbc1a5;}.cls-27,.cls-8{opacity:0.6;}.cls-20,.cls-27,.cls-8{mix-blend-mode:multiply;}.cls-9{fill:#dd5f47;}.cls-10{fill:#ccccd6;}.cls-11{fill:#8b8ba0;}.cls-12{fill:#f9b9a2;}.cls-13{fill:#ffcab3;}.cls-14,.cls-16{fill:#e28c71;}.cls-15,.cls-20{fill:#e28d6f;}.cls-16{opacity:0.2;}.cls-17{fill:#4f535e;}.cls-18{fill:#ff9a8d;}.cls-19{fill:#ef786f;}.cls-20{opacity:0.4;}.cls-21{fill:#c43f2d;}.cls-22{fill:#cecece;}.cls-23{fill:#4b4f4f;}.cls-24{fill:#fff;}.cls-25{fill:#ffe1e1;}.cls-26{fill:#fbb;}.cls-27{fill:#d8afa4;}.cls-28{fill:#6e858e;}.cls-29{fill:#95b1ba;}.cls-30,.cls-31{fill:none;stroke:#95b1ba;stroke-miterlimit:10;stroke-dasharray:5;}.cls-31{opacity:0.5;}.cls-32{fill:#e9446e;}.cls-33{fill:#ffb8cc;}</style></defs><g class="cls-1"><g id="OBJECTS"><path id="BACK" class="cls-2" d="M43.91,85.81l2.37,145.65c1.7,103.86,87.8,186.38,191.63,183.67l171.39-4.47a36.37,36.37,0,0,0,35.33-33.86l11.28-163.71A144.83,144.83,0,0,0,314.21,58.35L76,53.78A31.53,31.53,0,0,0,43.91,85.81Z"/><g id="WOMEN"><path class="cls-3" d="M129.16,415.19s-2.65,19.89,9.15,32.43a22.93,22.93,0,0,1-5.83,1.64s-23-25.29-24.69-39.09c0,0,8.49-5.15,13.9-6.09l2.49,2.55"/><path class="cls-4" d="M108.43,409.79l-.64.38c1.66,13.8,24.69,39.09,24.69,39.09l.63-.09C127.77,443.07,110.24,422.26,108.43,409.79Z"/><path class="cls-5" d="M129.63,399.18l-7.19,5.64s-6.59,9.35-1.78,9.67a16.5,16.5,0,0,0,7.7-1.08l.8,1.78,7-4.46"/><path class="cls-6" d="M244.58,243S223.43,364.49,132.77,414.66l-8.88-12.55s63.34-76.3,26.92-163.22"/><path class="cls-7" d="M398.88,102.89s2.92-11.75-10-13.44"/><path class="cls-8" d="M202.07,241.16l-1.13,8.64a364.52,364.52,0,0,1-46,.1,144.06,144.06,0,0,1,6.74,56.34c9.46,4.89,19.54,6,31.12,6.24l-4.61,35.38a5.16,5.16,0,0,0-.06.79h0c-.85,6.66,3,9.69,5.8,11C233.66,305.72,244.58,243,244.58,243Z"/><path class="cls-7" d="M207.33,351.63s-9.66-1.73-8.38-11.86"/><path class="cls-9" d="M188.73,81.56s-17.45-7.34-25.18,1.08-1.53,12.43-3.1,20.2-12,11.65-9.47,23.15,32,35.93,70.54,17,2.27-35.46-.82-52.07S204.77,71,188.73,81.56Z"/><path class="cls-10" d="M209.33,140.62s-53-1.67-72.71,6.66c0,0,8.16,57.37,4.68,91.61,0,0,46.52,7.92,82.7,0,0,0,5.57-50.72,9.77-58.33,0,0,6.43-5.07,9-10.46s-10.31-13.59-9-26.13A92.52,92.52,0,0,0,209.33,140.62Z"/><path class="cls-11" d="M187.65,174.13s15.85,3.93,25.22-10.22C212.87,163.91,206.43,177.94,187.65,174.13Z"/><path class="cls-8" d="M212.24,240.89l14.69-98.53c-1-.19-2-.37-3.16-.55,1.28-.68,2.45-1.35,3.55-2l4.6-30.84c-3-3.94-6.36-7.83-8.65-11.71Z"/><path class="cls-12" d="M212.88,114.33c.13,3.19,1.33,5.74,4.2,5.61s6.33-2.86,6.19-6.06-2.58-5.68-5.45-5.56S212.74,111.14,212.88,114.33Z"/><path class="cls-13" d="M167.57,141.57s-2.09,31.62,25.22,30.55c23.58-.92,22.85-24.77,22.21-31.28-1.8-.12-3.7-.2-5.67-.22C209.33,140.62,188.14,140,167.57,141.57Z"/><path class="cls-14" d="M219.45,115.4s-2.15-1.81-4.72,1C214.73,116.42,216.47,112.32,219.45,115.4Z"/><path class="cls-13" d="M207.58,136.77c.5,11.37-6,17.68-14.41,18h0c-8.38.36-15.42-5.37-15.91-16.74L176,108.5c-.49-11.37,5.61-14,14-14.38l.56-.48c8.38-.36,15.29,2.18,15.78,13.55Z"/><path class="cls-15" d="M177.16,135.82c3.86,4.65,10.38,6.87,17.7,6.55a24.69,24.69,0,0,0,12.73-3.82c0-.58,0-1.17,0-1.78l-1.27-29.58c-.49-11.37-7.4-13.91-15.78-13.55s-15,3.49-14.55,14.86Z"/><path class="cls-12" d="M179.73,114.19c.18,4.11-1.08,7.51-4.78,7.67s-8.43-3-8.61-7.1,2.68-7.58,6.37-7.74S179.55,110.07,179.73,114.19Z"/><path class="cls-14" d="M171.41,116.29s2.56-2.56,6.17.78C177.58,117.07,174.9,112,171.41,116.29Z"/><path class="cls-13" d="M175.5,97.26l1.13,26.28c.49,11.37,10,17,21.34,16.5s20.32-6.91,19.83-18.28l-1.27-29.58h0C195,90.06,181.28,94.66,175.5,97.26Z"/><path class="cls-9" d="M199.54,103.16c.58,1.68-1.81,1.25-4.29,2.09s-4.1,2.64-4.67,1,1-3.71,3.45-4.55S199,101.49,199.54,103.16Z"/><path class="cls-9" d="M206.83,104.6c-.34,1.47,1.67.9,3.86,1.4s3.74,1.89,4.08.42-1.16-3.09-3.36-3.59S207.17,103.12,206.83,104.6Z"/><path class="cls-16" d="M191,118.43c.06,1.45-2.06,2.73-4.73,2.84s-4.9-1-5-2.42,2.06-2.72,4.73-2.84S191,117,191,118.43Z"/><path class="cls-16" d="M222.85,118.44c.05,1.12-1.58,2.11-3.65,2.2s-3.78-.75-3.83-1.88,1.59-2.1,3.66-2.19S222.81,117.32,222.85,118.44Z"/><path class="cls-13" d="M203.74,115.05s4-1.83,5-.9-2.92,5.57-2.92,5.57"/><path class="cls-15" d="M204.3,114.74s.13-.08.38-.2.61-.28,1.07-.44a6.6,6.6,0,0,1,1.6-.38,2.21,2.21,0,0,1,1,.11.63.63,0,0,1,.24.13.76.76,0,0,1,.21.19,1.15,1.15,0,0,1,.2.52,2.53,2.53,0,0,1-.15,1,5.57,5.57,0,0,1-.37.86c-.14.27-.3.51-.44.74s-.3.45-.44.64c-.28.39-.53.69-.71.9l-.28.33.23-.37.26-.42.33-.55c.25-.4.51-.89.77-1.41a7.38,7.38,0,0,0,.33-.82,2.14,2.14,0,0,0,.12-.85.65.65,0,0,0-.43-.58,2,2,0,0,0-.82-.11,7.91,7.91,0,0,0-1.57.26l-1.09.31Z"/><path class="cls-17" d="M197.09,113.25s-.89-2.09-2.31-1.69,2.48,5.7,2.48,5.7,2.24-4.72,1.23-5.57S197.09,113.25,197.09,113.25Z"/><path class="cls-17" d="M211,112.51s-.67-1.57-1.73-1.26,1.86,4.27,1.86,4.27,1.68-3.54.92-4.18S211,112.51,211,112.51Z"/><path class="cls-18" d="M205.26,123.35a4.17,4.17,0,0,1-8.22-.67c.17-2,1.93-.86,4.2-.67S205.42,121.39,205.26,123.35Z"/><path class="cls-19" d="M197.91,125.12a4.38,4.38,0,0,0,3,1.45c.15,0,.28,0,.42,0C200.84,122.63,198.88,124.1,197.91,125.12Z"/><path class="cls-20" d="M181.35,101.94a4.43,4.43,0,0,0,4.58,1.24c3.14-.69,4.78-5.37,4.78-5.37s13.33,8.84,26.37,7.3l-.11-2.73-26.35-6.62Z"/><path class="cls-9" d="M176.24,114.48s4.89-4,5.11-12.54c0,0,5.08,3.83,9.33-4.92,0,0,9.5,7.39,26.39,7.64,0,0,.83-11.55,0-14.13s-37.47.78-42.35,6.23Z"/><path class="cls-21" d="M199.54,101.53l1,.32c.64.2,1.57.44,2.68.75s2.43.61,3.84.88c.7.15,1.44.26,2.18.39s1.51.2,2.27.31l2.28.23c.75,0,1.5.09,2.21.1s1.42,0,2.08,0,1.28-.08,1.85-.14l1.55-.23a10.13,10.13,0,0,0,1.19-.25l1-.24-1,.28a11.78,11.78,0,0,1-1.18.3l-1.56.27c-.57.07-1.2.11-1.86.17s-1.36,0-2.08.06-1.47,0-2.23-.06l-2.29-.21c-.76-.11-1.53-.19-2.27-.34s-1.48-.26-2.19-.42c-1.41-.29-2.72-.63-3.83-.93C201,102.09,199.54,101.53,199.54,101.53Z"/><path class="cls-21" d="M188.74,81.56a13.3,13.3,0,0,0-4.14,3.72,13.28,13.28,0,0,1,3.27-4.1"/><path class="cls-11" d="M163.56,173.9s4.07,29.32,35.24,8.09C198.8,182,174,199.42,163.56,173.9Z"/><path class="cls-13" d="M137.88,148.23s3.81,28.53,4.76,45.33C142.64,193.56,150.72,140.94,137.88,148.23Z"/><path class="cls-7" d="M364.77,364.53a7.6,7.6,0,0,1-8.53,6.56l-148-19.3a7.61,7.61,0,0,1-6.56-8.53L235.81,81.11a7.61,7.61,0,0,1,8.53-6.56l148,19.3a7.62,7.62,0,0,1,6.56,8.53Z"/><rect class="cls-22" x="264.95" y="54.77" width="7.79" height="39.7" rx="1.9" transform="matrix(0.13, -0.99, 0.99, 0.13, 160.1, 331.56)"/><path class="cls-23" d="M362.15,360.25a7.6,7.6,0,0,1-8.53,6.56l-148-19.3A7.61,7.61,0,0,1,199,339L233.2,76.83a7.6,7.6,0,0,1,8.52-6.56l148,19.3a7.6,7.6,0,0,1,6.56,8.53Z"/><path class="cls-24" d="M355.26,350.63a6.87,6.87,0,0,1-7.69,5.91L214.06,339.13a6.86,6.86,0,0,1-5.91-7.69L240,87.4a6.86,6.86,0,0,1,7.69-5.92l133.5,17.41a6.86,6.86,0,0,1,5.92,7.69Z"/><path class="cls-23" d="M323.05,91.31a8.71,8.71,0,1,1-7.51-9.77A8.7,8.7,0,0,1,323.05,91.31Z"/><path class="cls-24" d="M320,90.92a5.66,5.66,0,1,1-4.88-6.34A5.65,5.65,0,0,1,320,90.92Z"/><path class="cls-9" d="M278.42,134.51a7.6,7.6,0,0,1-8.53,6.56l-15.56-2a7.62,7.62,0,0,1-6.56-8.53l2-15.56a7.6,7.6,0,0,1,8.53-6.56l15.56,2a7.6,7.6,0,0,1,6.56,8.52Z"/><path class="cls-25" d="M371.1,149.47a4.75,4.75,0,0,1-5.33,4.1L291,143.82a4.77,4.77,0,0,1-4.1-5.33l2.77-21.22a4.76,4.76,0,0,1,5.33-4.1l74.81,9.76a4.75,4.75,0,0,1,4.1,5.33Z"/><path class="cls-25" d="M368.43,169.91a1.9,1.9,0,0,1-2.13,1.64L246.38,155.91a1.9,1.9,0,0,1-1.64-2.13l.57-4.4a1.91,1.91,0,0,1,2.14-1.64l119.92,15.63a1.91,1.91,0,0,1,1.64,2.14Z"/><path class="cls-25" d="M366.71,183.11a1.91,1.91,0,0,1-2.13,1.64L244.66,169.11A1.9,1.9,0,0,1,243,167l.57-4.4a1.91,1.91,0,0,1,2.14-1.64l119.91,15.64a1.89,1.89,0,0,1,1.64,2.13Z"/><path class="cls-25" d="M352.41,292.76a1.9,1.9,0,0,1-2.13,1.64L230.36,278.76a1.9,1.9,0,0,1-1.64-2.13l.58-4.4a1.9,1.9,0,0,1,2.13-1.64l119.92,15.64a1.9,1.9,0,0,1,1.64,2.13Z"/><path class="cls-25" d="M350.57,306.9a1.9,1.9,0,0,1-2.13,1.64L228.52,292.91a1.91,1.91,0,0,1-1.64-2.14l.57-4.4a1.91,1.91,0,0,1,2.13-1.64L349.5,300.37a1.9,1.9,0,0,1,1.64,2.13Z"/><path class="cls-25" d="M348.6,322a1.9,1.9,0,0,1-2.13,1.64L226.55,308a1.9,1.9,0,0,1-1.64-2.13l.58-4.4a1.9,1.9,0,0,1,2.13-1.64l119.91,15.64a1.89,1.89,0,0,1,1.64,2.13Z"/><path class="cls-25" d="M346.63,337.08a1.9,1.9,0,0,1-2.13,1.64L224.58,323.08a1.9,1.9,0,0,1-1.64-2.13l.58-4.4a1.9,1.9,0,0,1,2.13-1.64l119.92,15.64a1.9,1.9,0,0,1,1.64,2.13Z"/><path class="cls-26" d="M357.12,256.66A1.9,1.9,0,0,1,355,258.3L235.07,242.67a1.91,1.91,0,0,1-1.64-2.14l8.11-62.23a1.9,1.9,0,0,1,2.14-1.64L363.6,192.29a1.89,1.89,0,0,1,1.63,2.13Z"/><path class="cls-9" d="M287.86,268.09a1.9,1.9,0,0,1-2.13,1.64l-53.28-7a1.89,1.89,0,0,1-1.64-2.13l1.35-10.37a1.9,1.9,0,0,1,2.13-1.64l53.28,6.94a1.91,1.91,0,0,1,1.64,2.14Z"/><path class="cls-9" d="M354.5,276.78a1.9,1.9,0,0,1-2.13,1.64l-53.29-6.95a1.9,1.9,0,0,1-1.64-2.13L298.8,259a1.9,1.9,0,0,1,2.13-1.64l53.28,6.94a1.92,1.92,0,0,1,1.64,2.14Z"/><path class="cls-24" d="M298.91,210.31s-1.74-7.82-8.35-7.94,4.67,30.22,4.67,30.22,17-20.84,14.75-25.77S298.91,210.31,298.91,210.31Z"/><path class="cls-27" d="M345.52,337.4l-.11-.16,1.57-1.15-3.36-3.48,1-1s-44-53.38-130-86.31c0,0-1.19.07-3.37.15l-8.12,62.26c29.26,1.53,68.27-3,130.42,34.82l.9-.9,3.7,3.12h0l-.59.88c2,5.11,8.77,12.38,8.77,12.38,6.6-2.21,14.94-10.25,21.62-17.73l1.62-12.45C359.5,335.2,347,336.09,347,336.09Z"/><path class="cls-13" d="M309.36,79.15s-.86-3.55-2.45-3.48a5.7,5.7,0,0,0-3.05,1.43s-.9-2.38-1.46-2.38-1.8,2.22-1.8,2.22-2-3.17-3.12-3.17-1.39,2.69-1.39,2.69-1.53-1.87-2.57-2.12-3.61,10.69-2,10.84,4.23-7,4.23-7-.07,10.3,1.46,10.46,3-9.82,3-9.82-.14,8.63,1,9,2.64-8.64,2.64-8.64-.42,11.1.76,11.26,3.47-11.57,3.47-11.57Z"/><path class="cls-3" d="M347,328s20-2,29.48-16.31a22.78,22.78,0,0,1,2.93,5.29S360,345.22,347,350c0,0-7-7.08-9.1-12.13l1.9-3"/><path class="cls-4" d="M346.46,349.45l.52.54c13-4.77,32.41-33,32.41-33-.07-.19-.15-.39-.23-.59C374.44,323,358.18,344.85,346.46,349.45Z"/><path class="cls-22" d="M394.7,130.14l-.94-.12-8.91,64.53,1.43.19a1.9,1.9,0,0,0,2.13-1.64l7.93-60.82A1.91,1.91,0,0,0,394.7,130.14Z"/><path class="cls-13" d="M331.28,331.25l7.14,5.71s10.61,4.27,9.82-.48a16.59,16.59,0,0,0-2.81-7.25L347,328l-6-5.82"/><path class="cls-28" d="M141.3,238.89s-8,32.17,26.24,55.52,74.77-11.92,166.22,40.44l10.72-11.2s-45.4-52.18-132.24-82.76C212.24,240.89,181.24,243.64,141.3,238.89Z"/><path class="cls-8" d="M212.21,237.81l.31-2.41-.5-.1.51,0,.77-5.92-1.86.14,1.88-.29,1.37-10.5L203.37,227s-26.41,8.83-52.9-.8a33.7,33.7,0,0,1-8.32-4.25c-.06,6-.32,11.72-.85,16.93a26.44,26.44,0,0,0-.53,3.25c21,4.87,46.75,2.4,67.23-5.23C208,236.91,209.78,237.31,212.21,237.81Z"/><path class="cls-29" d="M167.48,267.87s12.12,1.45,8.32-15.91C175.8,252,183.65,271.18,167.48,267.87Z"/><path class="cls-30" d="M182.69,270.57s21.16,9.41,54.69,11.92,97.71,46.74,97.71,46.74"/><path class="cls-31" d="M176.2,304s-2.86,56.74-46.6,99.53"/><path class="cls-13" d="M139.69,147.56s-40.86,13.86-37.92,51.77c3.38,43.45,65.29,48.79,106.23,33.54l-4.63-9.9s-26.41,8.83-52.9-.81-7.93-28.07-7.93-28.07S147.11,152.16,139.69,147.56Z"/><path class="cls-13" d="M203.37,223l11.9-8.67-.91,7s15-2.73,16.43-.61c1.19,1.78-19.35,4.85-19.35,4.85s18.09-1.52,18.65.62c.43,1.69-17.05,2.32-17.05,2.32s14.29,1.47,15.22,2.67-16.24.14-16.24.14,13.41,2.54,13.94,4.15-18-2.54-18-2.54A17.5,17.5,0,0,1,203.37,223Z"/></g><g id="Слой_3" data-name="Слой 3"><path id="heart8" class="cls-3" d="M104.46,94S104,87.08,108,84c5.12-3.89,11.81-1.64,15.56,3.44s3,13,2.44,17.66c-1.26,10.1-2.43,13.67-2.88,17-3.28-.88-7-1.16-16.77-3.88-4.56-1.27-12.12-3.71-15.31-9.07S88.36,96.69,93.9,93.44C98.33,90.84,104.46,94,104.46,94Z"/><path id="heart7" class="cls-24" d="M70.85,143s-1.13-3.71.74-5.9c2.32-2.75,6.26-2.34,8.93,0s3.24,6.72,3.49,9.36c.54,5.68.34,7.78.5,9.68-1.9-.09-4,.22-9.65-.08-2.64-.14-7.08-.55-9.48-3.09s-3-6.5-.37-8.95C67.11,142,70.85,143,70.85,143Z"/><path id="heart6" class="cls-32" d="M437.55,119.89s5.59-4.06,10.38-2.2c6,2.32,7.59,9.19,5.23,15.05s-9.43,9.38-13.74,11.35c-9.26,4.23-12.91,5.1-16,6.48-1-3.25-2.69-6.56-5.5-16.31-1.31-4.54-3.2-12.26-.31-17.79s9.19-8.86,14.87-5.85C437,113,437.55,119.89,437.55,119.89Z"/><path id="heart5" class="cls-24" d="M302.74,204.25s4.54-5.21,9.62-4.47c6.37.91,9.47,7.25,8.48,13.49s-7.09,11.26-10.85,14.14c-8.07,6.2-11.43,7.87-14.15,9.91-1.67-2.94-4.09-5.79-9-14.66-2.3-4.13-5.87-11.23-4.29-17.26s7-10.7,13.18-9.05C300.66,197.68,302.74,204.25,302.74,204.25Z"/><path id="heart4" class="cls-3" d="M433.93,198.2s3.63.1,5,2.4c1.76,2.88.22,6.25-2.63,7.94s-6.92.88-9.34.32c-5.21-1.2-7-2-8.74-2.42.64-1.66,1-3.58,2.93-8.54.9-2.31,2.59-6.12,5.55-7.5s6.66-.74,8.06,2.32C435.9,195.17,433.93,198.2,433.93,198.2Z"/><path id="heart3" class="cls-33" d="M68.5,313.77s-5.24-4.51-4.54-9.59c.88-6.37,7.2-9.51,13.44-8.57s11.3,7,14.22,10.76c6.25,8,7.94,11.38,10,14.08-2.94,1.69-5.76,4.13-14.6,9.12-4.11,2.32-11.19,5.94-17.23,4.41s-10.75-6.9-9.14-13.12C62,315.89,68.5,313.77,68.5,313.77Z"/><path id="heart2" class="cls-32" d="M90,238.39s-2.48-2.09-2.18-4.49c.37-3,3.33-4.51,6.27-4.1s5.35,3.24,6.74,5c3,3.74,3.8,5.31,4.78,6.57-1.37.81-2.68,2-6.81,4.36-1.92,1.12-5.23,2.86-8.08,2.17s-5.09-3.18-4.36-6.12C86.9,239.42,90,238.39,90,238.39Z"/><path id="heart1" class="cls-32" d="M421.67,269.39s3.8,1.25,4.55,4.14c.94,3.6-1.76,6.68-5.32,7.56s-7.6-1.26-10-2.63c-5.13-2.92-6.78-4.35-8.48-5.34,1.2-1.56,2.18-3.49,5.82-8.11,1.69-2.16,4.68-5.66,8.26-6.17s7.28,1.32,7.79,5C424.71,266.8,421.67,269.39,421.67,269.39Z"/></g></g></g></svg>