<?xml version="1.0" standalone="no"?>
<!DOCTYPE svg PUBLIC "-//W3C//DTD SVG 20010904//EN"
 "http://www.w3.org/TR/2001/REC-SVG-20010904/DTD/svg10.dtd">
<svg version="1.0" xmlns="http://www.w3.org/2000/svg"
 width="90.000000pt" height="90.000000pt" viewBox="0 0 90.000000 90.000000"
 preserveAspectRatio="xMidYMid meet">
<metadata>
Created by potrace 1.11, written by Peter Selinger 2001-2013
</metadata>
<g transform="translate(0.000000,90.000000) scale(0.100000,-0.100000)"
fill="#000000" stroke="none">
<path d="M586 858 c-21 -58 -26 -92 -15 -109 14 -22 47 27 54 83 11 78 -14 94
-39 26z"/>
<path d="M290 843 c1 -25 43 -106 55 -105 20 2 15 48 -7 82 -27 39 -48 50 -48
23z"/>
<path d="M821 714 c-33 -27 -56 -62 -48 -71 9 -8 60 26 81 54 28 38 6 50 -33
17z"/>
<path d="M415 706 c-134 -41 -218 -150 -219 -286 -1 -53 4 -76 28 -123 26 -51
138 -176 167 -186 13 -4 -52 100 -82 132 -11 12 -33 48 -49 79 -23 46 -28 68
-25 108 11 140 119 242 259 243 142 0 256 -115 256 -258 0 -48 -44 -142 -91
-195 -29 -33 -69 -100 -69 -116 0 -19 148 148 168 190 48 95 43 191 -15 285
-67 107 -210 162 -328 127z"/>
<path d="M114 674 c3 -9 6 -17 6 -19 0 -8 72 -47 77 -42 11 12 -7 37 -39 57
-40 24 -52 25 -44 4z"/>
<path d="M465 642 c-124 -23 -199 -109 -199 -229 0 -65 1 -66 102 -208 12 -17
37 -67 55 -110 18 -43 40 -83 49 -89 29 -18 67 20 94 94 12 35 37 84 55 109
85 120 93 134 97 187 5 62 -11 116 -48 164 -44 56 -141 95 -205 82z"/>
<path d="M68 418 c-30 -10 -37 -27 -13 -29 8 -1 21 -2 28 -2 44 -4 107 30 65
34 -7 1 -22 3 -33 4 -11 1 -32 -2 -47 -7z"/>
</g>
</svg>
